<mxfile host="app.diagrams.net" modified="2020-08-19T13:26:53.150Z" agent="5.0 (Windows NT 10.0; Win64; x64) AppleWebKit/537.36 (KHTML, like Gecko) Chrome/84.0.4147.135 Safari/537.36" etag="4vwwakf5M1BNBOmaMuNB" version="13.6.3" type="github">
  <diagram id="F9m3dsfEs_LRlSaXYQ2y" name="Page-1">
    <mxGraphModel dx="868" dy="450" grid="1" gridSize="10" guides="1" tooltips="1" connect="1" arrows="1" fold="1" page="1" pageScale="1" pageWidth="850" pageHeight="1100" math="0" shadow="0">
      <root>
        <mxCell id="0" />
        <mxCell id="1" parent="0" />
        <mxCell id="_TqlzUmV3FW6oKOLx6UM-1" value="Microphone picks up speaker" style="whiteSpace=wrap;html=1;aspect=fixed;" vertex="1" parent="1">
          <mxGeometry x="380" y="170" width="80" height="80" as="geometry" />
        </mxCell>
        <mxCell id="_TqlzUmV3FW6oKOLx6UM-2" value="Speaker outputs microphone" style="whiteSpace=wrap;html=1;aspect=fixed;" vertex="1" parent="1">
          <mxGeometry x="540" y="170" width="80" height="80" as="geometry" />
        </mxCell>
        <mxCell id="_TqlzUmV3FW6oKOLx6UM-5" value="" style="endArrow=classic;html=1;entryX=0.5;entryY=0;entryDx=0;entryDy=0;exitX=0.5;exitY=0;exitDx=0;exitDy=0;" edge="1" parent="1" source="_TqlzUmV3FW6oKOLx6UM-1" target="_TqlzUmV3FW6oKOLx6UM-2">
          <mxGeometry width="50" height="50" relative="1" as="geometry">
            <mxPoint x="400" y="210" as="sourcePoint" />
            <mxPoint x="450" y="160" as="targetPoint" />
            <Array as="points">
              <mxPoint x="450" y="150" />
              <mxPoint x="500" y="140" />
              <mxPoint x="550" y="150" />
            </Array>
          </mxGeometry>
        </mxCell>
        <mxCell id="_TqlzUmV3FW6oKOLx6UM-6" value="" style="endArrow=classic;html=1;entryX=0.5;entryY=1;entryDx=0;entryDy=0;exitX=0.5;exitY=1;exitDx=0;exitDy=0;" edge="1" parent="1" source="_TqlzUmV3FW6oKOLx6UM-2" target="_TqlzUmV3FW6oKOLx6UM-1">
          <mxGeometry width="50" height="50" relative="1" as="geometry">
            <mxPoint x="400" y="210" as="sourcePoint" />
            <mxPoint x="450" y="160" as="targetPoint" />
            <Array as="points">
              <mxPoint x="560" y="270" />
              <mxPoint x="500" y="280" />
              <mxPoint x="450" y="270" />
            </Array>
          </mxGeometry>
        </mxCell>
        <mxCell id="_TqlzUmV3FW6oKOLx6UM-7" value="The Online School Experience" style="text;html=1;strokeColor=none;fillColor=none;align=center;verticalAlign=middle;whiteSpace=wrap;rounded=0;" vertex="1" parent="1">
          <mxGeometry x="480" y="100" width="40" height="20" as="geometry" />
        </mxCell>
      </root>
    </mxGraphModel>
  </diagram>
</mxfile>
